<?xml version="1.0"?>
<svg xmlns:rdf="http://www.w3.org/1999/02/22-rdf-syntax-ns#" xmlns="http://www.w3.org/2000/svg" xmlns:cc="http://web.resource.org/cc/" xmlns:xlink="http://www.w3.org/1999/xlink" xmlns:dc="http://purl.org/dc/elements/1.1/" xmlns:svg="http://www.w3.org/2000/svg" version="1.1" viewBox="0 0 625 625">
  <desc>Created with Raven (http://www.aviary.com)</desc>
  <defs>
    <linearGradient id="linearGradient2" y2="3.5" gradientUnits="userSpaceOnUse" y1="3.5" gradientTransform="rotate(-89.744)" x2="624" x1="4">
      <stop stop-color="#da0000" offset="0"/>
      <stop stop-color="#320001" offset="1"/>
    </linearGradient>
    <linearGradient id="linearGradient3" y2="417.6" gradientUnits="userSpaceOnUse" y1="417.6" gradientTransform="rotate(90)" x2="345.75" x1="258.45">
      <stop stop-color="#da0000" stop-opacity="0" offset="0"/>
      <stop stop-color="#9b0000" offset=".95686"/>
    </linearGradient>
    <linearGradient id="linearGradient4" y2="290.55" gradientUnits="userSpaceOnUse" y1="290.55" x2="331.05" x1="275.8">
      <stop stop-color="#f90000" offset=".10588"/>
      <stop stop-color="#fcf500" offset=".10588"/>
      <stop stop-color="#fcf500" offset=".21569"/>
      <stop stop-color="#f90000" offset=".21569"/>
      <stop stop-color="#f90000" offset=".75294"/>
      <stop stop-color="#fcf500" offset=".75294"/>
      <stop stop-color="#fcf500" offset=".87843"/>
      <stop stop-color="#f90000" offset=".87843"/>
    </linearGradient>
    <linearGradient id="linearGradient5" y2="288.45" gradientUnits="userSpaceOnUse" y1="288.45" gradientTransform="matrix(-.0032927 .99999 -.99999 -.0032927 0 0)" x2="310.7" x1="291.8">
      <stop stop-color="#fff" offset="0"/>
      <stop stop-color="#f9b634" stop-opacity="0" offset="1"/>
    </linearGradient>
    <linearGradient id="linearGradient7" y2="288.45" gradientUnits="userSpaceOnUse" y1="288.45" gradientTransform="matrix(-.0032927 .99999 -.99999 -.0032927 0 0)" x2="310.7" x1="291.8">
      <stop stop-color="#fff" stop-opacity=".60784" offset=".10588"/>
      <stop stop-color="#fa3535" stop-opacity="0" offset="1"/>
    </linearGradient>
    <linearGradient id="linearGradient8" y2="159.25" gradientUnits="userSpaceOnUse" y1="159.25" x2="406.75" x1="394.05">
      <stop stop-color="#fff" offset=".20784"/>
      <stop stop-color="#fa3535" stop-opacity="0" offset="1"/>
    </linearGradient>
  </defs>
  <g id="Layer_D552B6ED-71D7-1B30-09AD-AF1CA23259AE">
    <path id="ShapeObject_04A5B2A1-EC83-C61D-6722-AF1F276730DF" d="m1 1h626v625h-626v-625z" style="color-interpolation:rgb" fill="url(#linearGradient2)"/>
    <path id="ShapeObject_155B1966-2801-86F0-9EED-AF749552100F" opacity="0" style="color-interpolation:rgb" d="m212.41 448.78h177.24c3.31 0 6 2.68 6 6v56.07c0 3.31-2.69 6-6 6h-177.24c-3.31 0-6-2.69-6-6v-56.07c0-3.32 2.69-6 6-6z" transform="matrix(-.67065 .00046623 -.00020935 -.30115 649.55 643.9)" fill="url(#linearGradient3)"/>
    <path id="ShapeObject_E9D07CEA-B5D6-89B7-D1C1-AF1CA23C908D" stroke-linejoin="round" d="m220 296h162c6.08 0 11 4.92 11 11v136c0 6.08-4.92 11-11 11h-162c-6.08 0-11-4.92-11-11v-136c0-6.08 4.92-11 11-11z" transform="matrix(.69454 0 0 .58931 238.75 219.55)" stroke="#d42700" stroke-width="3" fill="#ffac0b"/>
    <path id="ShapeObject_2CE38847-20D8-4344-C666-AF22E6AEA6B4" d="m209 382.55c66.53 23 124.77 27.6 184.6-0.1l-0.26 60.49c0.71 9.14-3.47 12.1-11.34 11.06h-162c-8.36 1.09-10.6-2.23-11-11v-60.45z" fill="#ff7d01" transform="matrix(.68146 0 0 .57696 242.5 224.15)" fill-opacity=".67843"/>
    <path id="ShapeObject_D5AE88A4-E067-73CF-F0A2-AF212D995D57" stroke-linejoin="round" d="m209 291h186c3.31 0 6 4.92 6 11v48c0 6.08-2.69 11-6 11h-186c-3.31 0-6-4.92-6-11v-48c0-6.08 2.69-11 6-11z" stroke-opacity=".78824" transform="matrix(.69454 0 0 .49244 238.75 247.5)" stroke="#d42700" stroke-width="4" fill="#ffac0b"/>
    <path id="ShapeObject_B03CC86D-5BA9-2DE0-FC10-AF28563EB734" opacity=".89" style="color-interpolation:rgb" d="m275.8 290.55h55.25v165.25h-55.25v-165.25z" transform="matrix(.74720 0 0 .58931 222.35 219.55)" fill="url(#linearGradient4)"/>
    <path id="EGGNode_1291428470547" stroke-linejoin="round" d="m410.27 237.16c-4.78-8.09-10.9-12.53-19.38-13.87-54.04-8.82-85.01 15.56-92.46 35.44 16.6 20.79 54.47 35.84 82.61 34.95 14.23-0.65 24.87-2.02 30.42-11.13-4.5-14.65-5.28-34.23-1.19-45.39z" transform="matrix(.0028878 -.55271 .79135 .0041347 245 552.05)" stroke="#ba0000" stroke-width=".5" fill="#da0000"/>
    <path id="EGGNode_1291428470552" stroke-linejoin="round" d="m346.35 234.96c-19.82-9.85-7.52 64.19-34.76 64.19-27.25 0 1.75-64.91-16.82-61.06-31.44 9.82-11.03 66.31 16.21 66.31s59.15-59.73 35.37-69.44z" transform="matrix(.17231 .025085 -.044934 .30866 404.55 282.9)" stroke="#ba0000" stroke-width=".5" fill="#b50000"/>
    <path id="EGGNode_1291428470562" d="m278.3 180.7c1.8 0.85 3.45 1.1 5.6 2.2-13.9 9.1-17.15 23.75-18.3 52.85l-5.4-2.1c0.58-29.4 3.45-41.85 18.1-52.95z" fill="#ffac0b" transform="matrix(-.58254 -.089092 -.089092 .58254 646.25 245.4)"/>
    <path id="EGGNode_1291428470595" opacity="0" d="m275.17 273.92c-2.3 1.3-56.25 9.77-80.25-4.48-16.2-7.1 23.52-27.25 32.57-50 38.07 11.1 45.41 21.59 58.71 50.69-11.85-17.9-22.11-31.71-39.21-30.51-4.23 0.1-18.64 0.44-7.82 14.56-26.47 1.56-18.55 9.82-14.77 12.12 9.75 9.75 37.97 6.37 50.77 7.62z" fill-opacity=".26667" transform="matrix(-.31923 .46293 .68074 .46943 353.75 122.9)" fill="#fff"/>
    <path id="ShapeObject_4DB385AA-830D-CE81-FE41-AF359C253A83" stroke-linejoin="round" d="m410.27 237.16c-4.78-8.09-10.9-12.53-19.38-13.87-54.04-8.82-85.01 15.56-92.46 35.44 16.6 20.79 54.47 35.84 82.61 34.95 14.23-0.65 24.87-2.02 30.42-11.13-4.5-14.65-5.28-34.23-1.19-45.39z" transform="matrix(.54440 -.22564 .22564 .54440 229.55 312.05)" stroke="#ba0000" stroke-width=".5" fill="#da0000"/>
    <path id="ShapeObject_DEC379D5-C7CA-9A26-ECED-AF41FF47804B" d="m278.3 180.7c1.8 0.85 3.45 1.1 5.6 2.2-13.9 9.1-17.15 23.75-18.3 52.85l-5.4-2.1c0.58-29.4 3.45-41.85 18.1-52.95z" fill="#ffac0b" transform="matrix(.58931 0 0 .58931 270.4 219.55)"/>
    <path id="EGGNode_1291428470543" stroke-linejoin="round" d="m410.27 237.16c-4.78-8.09-10.9-12.53-19.38-13.87-54.04-8.82-85.01 15.56-92.46 35.44 16.6 20.79 54.47 35.84 82.61 34.95 14.23-0.65 24.87-2.02 30.42-11.13-4.5-14.65-5.28-34.23-1.19-45.39z" transform="matrix(-.54440 -.22564 -.22564 .54440 666.65 312.05)" stroke="#ba0000" stroke-width=".5" fill="#da0000"/>
    <path id="ShapeObject_EFE89FC4-3E75-364E-BF3B-AF3A2E31EE3A" stroke-linejoin="round" d="m362.96 256.2c-10.57-27.15-26.41 17.1-53.66 17.1-27.24 0-40.2-39.6-51.23-16.45-3.26 16.25 24.65 21.7 51.89 21.7s54.21-9.45 53-22.35z" transform="matrix(.40781 0 0 .23698 321.25 317.05)" stroke="#ba0000" stroke-width=".5" fill="#b50000"/>
    <path id="ShapeObject_6F9BDAD1-C919-E532-FE32-AF56C0D8FC10" opacity="0" d="m183.45 260.7c14.25-20 14.25-20 18.6-41.4 6.73-4.38 9.5-5.65 13.45-6.85-15.9 9.25-11.27 14.44-16.83 26.12-6.57 18.98-24.97 51.73 91.58 47.38-84.75 17.1-106.7-16.95-106.8-25.25z" fill-opacity=".85882" transform="matrix(.58931 0 0 .58931 270.4 219.55)" fill="#ad0205"/>
    <path id="EGGNode_1291428470567" d="m279.49 180.37c1.82 0.5 3.5 0.79 5.65 1.89-14.26 6.03-44.82 28.56-36.29 50.77l-3.08-0.87c-6.54-26.91 21-47.64 33.72-51.79z" fill="#ffac0b" transform="matrix(-.39610 .39724 .79689 .79459 356.65 95)"/>
    <path id="EGGNode_1291428470572" d="m278.3 180.7c1.8 0.85 3.45 1.1 5.6 2.2-14.26 6.03-43.58 27.92-35.05 50.13l-3.08-0.87c-6.54-26.91 19.81-47.32 32.53-51.46z" fill="#ffac0b" transform="matrix(.39610 .39724 -.79689 .79459 540.4 95)"/>
    <path id="EGGNode_1291428470576" d="m278.81 180.56c1.8 0.85 2.99 1.09 5.14 2.19-14.26 6.03-42.07 32.18-31.7 53.76-0.9-0.37-0.9-0.37-1.79-0.74-13.07-24.65 15.63-51.07 28.35-55.21z" fill="#ffac0b" transform="matrix(-.021627 -.56056 1.1245 -.043385 182.05 536.25)"/>
    <path id="EGGNode_1291428470580" d="m278.3 180.7c1.8 0.85 3.45 1.1 5.6 2.2-14.26 6.03-41.72 30.77-29.86 52.19l-3.44 0.53c-10.36-24.65 14.98-50.78 27.7-54.92z" fill="#ffac0b" transform="matrix(.016655 -.56073 -1.1249 -.033412 715 534.15)"/>
    <path id="ShapeObject_1E53397F-96E2-E52A-FBB6-AF395758BBBF" stroke-linejoin="round" d="m291 265.35h20.84c4.97 0 9 4.03 9 9v7.11c0 4.97-4.03 9-9 9h-20.84c-4.97 0-9-4.03-9-9v-7.11c0-4.97 4.03-9 9-9z" transform="matrix(.39491 0 0 .57474 328.75 221.65)" stroke="#ba0000" stroke-width=".5" fill="#b50000"/>
    <path id="ShapeObject_2A1A3FDB-E950-342B-197E-AF497CC95D85" opacity="0" style="color-interpolation:rgb" d="m212.2 290.5h183.5c4.42 0 8 3.58 8 8v24c0 4.42-3.58 8-8 8h-183.5c-4.42 0-8-3.58-8-8v-24c0-4.42 3.58-8 8-8z" transform="matrix(.69790 0 0 .58931 236.5 218.25)" fill="url(#linearGradient5)"/>
    <path id="EGGNode_1291428470533" opacity="0" style="color-interpolation:rgb" d="m275.8 290.55h55.25v165.25h-55.25v-165.25z" transform="matrix(.69454 0 0 .59466 238.75 217.05)" fill="url(#linearGradient4)"/>
    <path id="ShapeObject_7FF0D284-78BC-8D02-526E-AF51E0286366" opacity="0" d="m261.15 278.15c-2.3 1.3-29.65-0.75-53.65-15-16.2-7.1 7.85-17.45 16.9-40.2 33.73 10.93 50.45 16.65 63.75 45.75-11.85-17.9-27.1-26.75-44.2-25.55-9.05 0.65-22.45 12.2-14.6 21.25 9.75 9.75 19 12.5 31.8 13.75z" fill-opacity=".26667" transform="matrix(.58931 0 0 .58931 270.4 219.55)" fill="#fff"/>
    <path id="EGGNode_1291428470590" opacity="0" d="m261.15 278.15c-2.3 1.3-29.65-0.75-53.65-15-16.2-7.1 7.85-17.45 16.9-40.2 33.73 10.93 52.64 13.01 65.94 42.11-11.85-17.9-29.29-23.11-46.39-21.91-3.94 0.28-1.72 6.4-5.2 9.7-4.51 4.29-13.84 6.44-9.4 11.55 9.75 9.75 19 12.5 31.8 13.75z" fill-opacity=".26667" transform="matrix(-.58926 -.0080876 -.0080876 .58926 631.65 219.15)" fill="#fff"/>
    <path id="ShapeObject_D07148F9-72AD-7597-1550-AF6669743EDC" d="m304.35 262.4h4.85c0.8 12.38 0.95 11.98 0.25 24.35l-4.92 0.25c0.82-11.8 0.89-11.7-0.18-24.6z" fill="#ffac0b" transform="matrix(.21858 0 0 .58931 385.4 219.55)"/>
    <path id="EGGNode_1291428470600" d="m304.35 262.4h4.85c0.8 12.38 0.85 12.22 0.15 24.6h-4.73c0.83-11.8 0.8-11.7-0.27-24.6z" fill="#ffac0b" transform="matrix(-.25873 0 0 .58931 523.3 219.55)"/>
    <path id="EGGNode_1291428470605" opacity="0" style="color-interpolation:rgb" d="m263.2 290.5h81.5c32.58 0 59 4.48 59 10v20c0 5.52-26.42 10-59 10h-81.5c-32.58 0-59-4.48-59-10v-20c0-5.52 26.42-10 59-10z" transform="matrix(.075836 1.6793e-16 -1.6754e-15 .36318 425 268.75)" fill="url(#linearGradient7)"/>
    <path id="EGGNode_1291428470610" d="m279.35 206.8c-10.15-7.9-6.67-11.47 1.8-16.42-9.2 6.12-11.9 6.72-15.06-6.79 2.66 13.86-1.35 13.2-11.11 12.23 9.74 1.16 13.97 0.68 8.2 14.34 5.57-14.16 8.85-9.89 16.17-3.36z" fill="#fff" transform="matrix(.66229 .37103 -.34690 .61921 399.55 153.1)" fill-opacity=".60784"/>
    <path id="EGGNode_1291428470618" opacity="0" d="m279.35 206.8c-10.15-7.9-6.67-11.47 1.8-16.42-9.2 6.12-11.9 6.72-15.06-6.79 2.66 13.86-1.35 13.2-11.11 12.23 9.74 1.16 13.97 0.68 8.2 14.34 5.57-14.16 8.85-9.89 16.17-3.36z" fill-opacity=".60784" transform="matrix(.41184 .42152 -.42152 .41184 415.4 181)" fill="#fff"/>
    <path id="EGGNode_1291428470622" opacity="0" d="m279.35 206.8c-10.15-7.9-6.67-11.47 1.8-16.42-9.2 6.12-11.9 6.72-15.06-6.79 2.66 13.86-1.35 13.2-11.11 12.23 9.74 1.16 13.97 0.68 8.2 14.34 5.57-14.16 8.85-9.89 16.17-3.36z" fill-opacity=".60784" transform="matrix(.78889 0 0 .64428 216.8 208.8)" fill="#fff"/>
    <path id="EGGNode_1291428470647" opacity="0" d="m279.35 206.8c-10.15-7.9-6.67-11.47 1.8-16.42-9.2 6.12-11.9 6.72-15.06-6.79 2.66 13.86-1.35 13.2-11.11 12.23 9.74 1.16 13.97 0.68 8.2 14.34 5.57-14.16 8.85-9.89 16.17-3.36z" fill-opacity=".60784" transform="matrix(.54091 .58786 -.54336 .49996 342.95 134.25)" fill="#fff"/>
    <path id="EGGNode_1291428470628" stroke-linejoin="round" d="m409.1 166.38c0-4.27-3.76-7.73-8.4-7.73s-8.4 3.46-8.4 7.73c0 4.26 3.76 7.72 8.4 7.72s8.4-3.46 8.4-7.72z" stroke-opacity=".68627" transform="matrix(.36436 0 0 .36436 342.9 268.75)" stroke="#ba0000" stroke-width=".75" fill="#ffac0b"/>
    <path id="EGGNode_1291428470632" d="m409.55 166.6c0-3.89-2.84-7.05-6.35-7.05s-6.35 3.16-6.35 7.05 2.84 7.05 6.35 7.05 6.35-3.16 6.35-7.05z" style="color-interpolation:rgb" fill="url(#linearGradient8)" transform="matrix(-.081480 .35513 -.33049 -.075826 576.9 198.75)"/>
    <path id="EGGNode_1291428470638" stroke-linejoin="round" d="m409.1 166.38c0-4.27-3.76-7.73-8.4-7.73s-8.4 3.46-8.4 7.73c0 4.26 3.76 7.72 8.4 7.72s8.4-3.46 8.4-7.72z" stroke-opacity=".68627" transform="matrix(.38630 -.17742 .17742 .38630 282.9 324.15)" stroke="#ba0000" stroke-width=".75" fill="#ffac0b"/>
    <path id="EGGNode_1291428470642" d="m409.55 166.6c0-3.89-2.84-7.05-6.35-7.05s-6.35 3.16-6.35 7.05 2.84 7.05 6.35 7.05 6.35-3.16 6.35-7.05z" style="color-interpolation:rgb" fill="url(#linearGradient8)" transform="matrix(.086539 .41619 -.43933 .091350 505.4 134.15)"/>
    <path id="EGGNode_1291428470661" stroke-linejoin="round" d="m409.1 166.38c0-4.27-3.76-7.73-8.4-7.73s-8.4 3.46-8.4 7.73c0 4.26 3.76 7.72 8.4 7.72s8.4-3.46 8.4-7.72z" stroke-opacity=".68627" transform="matrix(.57026 -.27498 .27498 .57026 169.1 329.3)" stroke="#ba0000" stroke-width=".75" fill="#ffac0b"/>
    <path id="EGGNode_1291428470665" d="m409.55 166.6c0-3.89-2.84-7.05-6.35-7.05s-6.35 3.16-6.35 7.05 2.84 7.05 6.35 7.05 6.35-3.16 6.35-7.05z" style="color-interpolation:rgb" fill="url(#linearGradient8)" transform="matrix(.14050 .61731 -.61754 .14055 489.35 41.35)"/>
    <path id="EGGNode_1291428470669" stroke-linejoin="round" d="m409.1 166.38c0-4.27-3.76-7.73-8.4-7.73s-8.4 3.46-8.4 7.73c0 4.26 3.76 7.72 8.4 7.72s8.4-3.46 8.4-7.72z" stroke-opacity=".68627" transform="matrix(.84627 -.53275 .53275 .84627 -21.3 385.4)" stroke="#ba0000" stroke-width=".75" fill="#ffac0b"/>
    <path id="EGGNode_1291428470673" d="m409.55 166.6c0-3.89-2.84-7.05-6.35-7.05s-6.35 3.16-6.35 7.05 2.84 7.05 6.35 7.05 6.35-3.16 6.35-7.05z" style="color-interpolation:rgb" fill="url(#linearGradient8)" transform="matrix(.30857 .88262 -.97472 .34077 444.25 -100.95)"/>
    <path id="EGGNode_1291428470678" opacity="0" d="m279.35 206.8c-10.15-7.9-6.67-11.47 1.8-16.42-9.2 6.12-11.9 6.72-15.06-6.79 2.66 13.86-1.35 13.2-11.11 12.23 9.74 1.16 13.97 0.68 8.2 14.34 5.57-14.16 8.85-9.89 16.17-3.36z" fill-opacity=".60784" transform="matrix(.41184 .42152 -.42152 .41184 377.85 113)" fill="#fff"/>
    <path id="ShapeObject_17DBBAC7-587C-12BE-404D-AF8D435D8784" d="m431 424.45l35.75-0.05-0.05 1.95-35.75-0.05s0.05-1.7 0.05-1.85z" fill="#d42700" transform="matrix(1.1786 0 0 1 -79.85 0)" fill-opacity=".67843"/>
  </g>
  <metadata>
    <rdf:RDF>
      <cc:Work>
        <dc:format>image/svg+xml</dc:format>
        <dc:type rdf:resource="http://purl.org/dc/dcmitype/StillImage"/>
        <cc:license rdf:resource="http://creativecommons.org/licenses/publicdomain/"/>
        <dc:publisher>
          <cc:Agent rdf:about="http://openclipart.org/">
            <dc:title>Openclipart</dc:title>
          </cc:Agent>
        </dc:publisher>
        <dc:title>Red Gift</dc:title>
        <dc:date>2010-12-13T16:56:31</dc:date>
        <dc:description>Red gift  - upload test</dc:description>
        <dc:source>http://openclipart.org/detail/100519/red-gift-by-jeffdoute</dc:source>
        <dc:creator>
          <cc:Agent>
            <dc:title>jeffdoute</dc:title>
          </cc:Agent>
        </dc:creator>
        <dc:subject>
          <rdf:Bag>
            <rdf:li>christmas</rdf:li>
            <rdf:li>clip art</rdf:li>
            <rdf:li>clipart</rdf:li>
            <rdf:li>gift</rdf:li>
            <rdf:li>holidays2010</rdf:li>
            <rdf:li>red</rdf:li>
          </rdf:Bag>
        </dc:subject>
      </cc:Work>
      <cc:License rdf:about="http://creativecommons.org/licenses/publicdomain/">
        <cc:permits rdf:resource="http://creativecommons.org/ns#Reproduction"/>
        <cc:permits rdf:resource="http://creativecommons.org/ns#Distribution"/>
        <cc:permits rdf:resource="http://creativecommons.org/ns#DerivativeWorks"/>
      </cc:License>
    </rdf:RDF>
  </metadata>
</svg>
